<?xml version="1.0" encoding="utf-8"?>
<!-- Generator: Adobe Illustrator 19.0.0, SVG Export Plug-In . SVG Version: 6.00 Build 0)  -->
<svg version="1.1" id="Compas_1_" xmlns="http://www.w3.org/2000/svg" xmlns:xlink="http://www.w3.org/1999/xlink" x="0px" y="0px"
	 viewBox="0 0 81 81" style="enable-background:new 0 0 81 81;" xml:space="preserve">
<style type="text/css">
	.st0{fill-rule:evenodd;clip-rule:evenodd;}
</style>
<g id="Compas">
	<g>
		<path class="st0" d="M60.1,18.8L35.5,35.1c-0.2,0.1-0.3,0.3-0.4,0.4L18.8,60.1c-0.4,0.6-0.3,1.4,0.2,1.9c0.3,0.3,0.7,0.4,1.1,0.4
			c0.3,0,0.6-0.1,0.8-0.3l24.5-16.3c0.2-0.1,0.3-0.3,0.4-0.4l16.3-24.5c0.4-0.6,0.3-1.4-0.2-1.9C61.5,18.5,60.7,18.4,60.1,18.8z
			 M25.5,55.5l11.9-18h0l6,6L25.5,55.5z M40.5,0C18.2,0,0,18.2,0,40.5C0,62.8,18.2,81,40.5,81C62.8,81,81,62.8,81,40.5
			C81,18.2,62.8,0,40.5,0z M42.1,77.7v-1.6c0-0.9-0.7-1.6-1.6-1.6c-0.9,0-1.6,0.7-1.6,1.6v1.6C19.6,76.9,4.1,61.4,3.3,42.1h1.6
			c0.9,0,1.6-0.7,1.6-1.6c0-0.9-0.7-1.6-1.6-1.6H3.3C4.1,19.6,19.6,4.1,38.9,3.3v1.6c0,0.9,0.7,1.6,1.6,1.6c0.9,0,1.6-0.7,1.6-1.6
			V3.3c19.3,0.8,34.8,16.3,35.6,35.6h-1.6c-0.9,0-1.6,0.7-1.6,1.6c0,0.9,0.7,1.6,1.6,1.6h1.6C76.9,61.4,61.4,76.9,42.1,77.7z"/>
	</g>
</g>
</svg>
