<?xml version="1.0" encoding="utf-8"?>
<!-- Generator: Adobe Illustrator 19.0.0, SVG Export Plug-In . SVG Version: 6.00 Build 0)  -->
<svg version="1.1" id="Design_1_" xmlns="http://www.w3.org/2000/svg" xmlns:xlink="http://www.w3.org/1999/xlink" x="0px" y="0px"
	 viewBox="0 0 67 66" style="enable-background:new 0 0 67 66;" xml:space="preserve">
<style type="text/css">
	.st0{fill-rule:evenodd;clip-rule:evenodd;}
</style>
<g id="Design">
	<g>
		<path class="st0" d="M60.2,13.4l0.9,0.9c0,0,1.1-1.1,1.1-1.1c2.6-2.6,2.6-6.7,0-9.3c-2.6-2.6-6.7-2.6-9.3,0c0,0-1.1,1.1-1.1,1.1
			l0,0l-17,17l-22-22L0,12.7l22,22L5.1,51.6c-0.2,0.2-0.3,0.4-0.3,0.6L2,62.3c-0.1,0.5,0,1,0.3,1.3C2.6,63.9,3,64,3.3,64
			c0.1,0,0.2,0,0.4,0l10.1-2.7c0.2-0.1,0.4-0.2,0.6-0.3l46.7-46.6L60.2,13.4z M3.8,12.7l8.9-8.9L14.9,6l-1.7,1.7l1.9,1.9l1.7-1.7
			l2.1,2.1l-3.1,3.1l1.9,1.9l3.1-3.1l2.1,2.1l-1.7,1.7l1.9,1.9l1.7-1.7l2.1,2.1L24,21.3l1.9,1.9l3.1-3.1l2.1,2.1L29.4,24l1.7,1.7
			l-7.1,7.1L3.8,12.7z M12.8,58.7L12.8,58.7l-5.5-5.5l0,0L53.7,6.9l5.5,5.5L12.8,58.7z M45.2,32.4l-1,1l0,0l-2.7,2.7l1.9,1.9
			l1.7-1.7l2.1,2.1l-3.1,3.1l1.9,1.9l3.1-3.1l2.1,2.1l-1.7,1.7l1.9,1.9l1.7-1.7l2.1,2.1l-3.1,3.1l1.9,1.9l3.1-3.1l2.1,2.1l-1.7,1.7
			l1.9,1.9l1.7-1.7l0.9,0.9l-8.9,8.9l-19-19l-1.9,1.9L53.4,66l12.7-12.7L45.2,32.4z"/>
	</g>
</g>
</svg>
