<?xml version="1.0" encoding="utf-8"?>
<!-- Generator: Adobe Illustrator 19.0.0, SVG Export Plug-In . SVG Version: 6.00 Build 0)  -->
<svg version="1.1" id="Engineering_1_" xmlns="http://www.w3.org/2000/svg" xmlns:xlink="http://www.w3.org/1999/xlink" x="0px"
	 y="0px" viewBox="0 0 78 78" style="enable-background:new 0 0 78 78;" xml:space="preserve">
<style type="text/css">
	.st0{fill-rule:evenodd;clip-rule:evenodd;}
</style>
<g id="Engineering">
	<g>
		<path class="st0" d="M76.2,33.3l-8.2-1.3c-0.7-2.7-1.8-5.2-3.2-7.6l4.8-6.8c0.4-0.6,0.4-1.4-0.2-2l-6.5-6.5
			c-0.5-0.5-1.4-0.6-2-0.2l-6.8,4.9c-2.4-1.4-5-2.5-7.7-3.2L45,2.3C44.8,1.5,44.2,1,43.5,1h-9.3c-0.8,0-1.4,0.5-1.5,1.3l-1.3,8.2
			c-2.6,0.7-5.2,1.7-7.6,3.1l-6.8-4.9c-0.6-0.4-1.5-0.4-2,0.2l-6.5,6.5c-0.5,0.5-0.6,1.4-0.2,2l4.8,6.9c-1.4,2.4-2.5,4.9-3.2,7.6
			l-8.2,1.4c-0.7,0.1-1.3,0.8-1.3,1.5V44c0,0.7,0.5,1.4,1.3,1.5L9.9,47c0.7,2.7,1.7,5.2,3.2,7.6l-4.9,6.8c-0.4,0.6-0.4,1.5,0.2,2
			l6.5,6.5c0.5,0.5,1.4,0.6,2,0.2l6.9-4.8c2.4,1.4,4.9,2.5,7.6,3.2l1.4,8.2c0.1,0.7,0.8,1.3,1.5,1.3h9.3c0.7,0,1.4-0.5,1.5-1.3
			l1.5-8.2c2.7-0.7,5.3-1.8,7.7-3.2l6.9,4.8c0.6,0.4,1.4,0.4,2-0.2l6.5-6.5c0.5-0.5,0.6-1.4,0.2-2l-4.9-6.8c1.4-2.4,2.5-5,3.2-7.6
			l8.2-1.4c0.7-0.1,1.3-0.8,1.3-1.5v-9.2C77.5,34,76.9,33.4,76.2,33.3z M74.4,42.7l-8,1.4c-0.6,0.1-1.1,0.6-1.2,1.2
			c-0.7,3-1.9,5.9-3.6,8.6c-0.3,0.5-0.3,1.2,0,1.7l4.7,6.5l-4.7,4.7l-6.6-4.6c-0.5-0.4-1.2-0.4-1.7,0c-2.7,1.7-5.5,2.9-8.6,3.6
			c-0.6,0.1-1.1,0.6-1.2,1.2l-1.4,8h-6.7l-1.3-8c-0.1-0.6-0.6-1.1-1.2-1.2c-3-0.7-5.9-1.9-8.5-3.5c-0.5-0.3-1.2-0.3-1.7,0l-6.6,4.6
			l-4.7-4.7l4.7-6.6c0.4-0.5,0.4-1.2,0-1.7c-1.7-2.6-2.9-5.5-3.5-8.5c-0.1-0.6-0.6-1.1-1.2-1.2l-8-1.4v-6.6l8-1.3
			c0.6-0.1,1.1-0.6,1.3-1.2c0.7-3,1.9-5.9,3.5-8.5c0.3-0.5,0.3-1.2,0-1.7l-4.6-6.6l4.7-4.7l6.6,4.7c0.5,0.4,1.2,0.4,1.7,0
			c2.6-1.7,5.5-2.9,8.5-3.5c0.6-0.1,1.1-0.6,1.2-1.3l1.3-7.9h6.6l1.4,7.9c0.1,0.6,0.6,1.1,1.2,1.2c3,0.7,5.9,1.9,8.6,3.6
			c0.5,0.3,1.2,0.3,1.7,0l6.5-4.7l4.7,4.7l-4.6,6.6c-0.4,0.5-0.4,1.2,0,1.7c1.7,2.6,2.9,5.5,3.6,8.6c0.1,0.6,0.6,1.1,1.3,1.2
			l7.9,1.3V42.7z M38.9,28.7c-6,0-10.8,4.8-10.8,10.8c0,5.9,4.8,10.8,10.8,10.8c6,0,10.8-4.8,10.8-10.8
			C49.7,33.5,44.9,28.7,38.9,28.7z M38.9,47.2c-4.3,0-7.7-3.5-7.7-7.7c0-4.2,3.5-7.7,7.7-7.7c4.3,0,7.7,3.5,7.7,7.7
			C46.6,43.7,43.2,47.2,38.9,47.2z M38.9,17.9c-11.9,0-21.6,9.7-21.6,21.6C17.3,51.4,27,61,38.9,61c11.9,0,21.6-9.7,21.6-21.6
			C60.5,27.6,50.8,17.9,38.9,17.9z M38.9,58c-10.2,0-18.5-8.3-18.5-18.5c0-10.2,8.3-18.5,18.5-18.5c10.2,0,18.5,8.3,18.5,18.5
			C57.4,49.7,49.1,58,38.9,58z"/>
	</g>
</g>
</svg>
