<?xml version="1.0" encoding="utf-8"?>
<!-- Generator: Adobe Illustrator 19.0.0, SVG Export Plug-In . SVG Version: 6.00 Build 0)  -->
<svg version="1.1" id="Office_Lamp_1_" xmlns="http://www.w3.org/2000/svg" xmlns:xlink="http://www.w3.org/1999/xlink" x="0px"
	 y="0px" viewBox="0 0 73 73" style="enable-background:new 0 0 73 73;" xml:space="preserve">
<style type="text/css">
	.st0{fill-rule:evenodd;clip-rule:evenodd;}
</style>
<g id="Office_Lamp">
	<g>
		<path class="st0" d="M73,33.6c0-3.6-2.6-6.6-6-7.2L52.5,9.6c0-0.3,0-0.6,0-0.8c0-4-3.3-7.3-7.3-7.3c-2.4,0-4.5,1.1-5.8,2.9
			L25.9,5.6c-1-3.1-3.8-5.4-7.3-5.6c-0.2,0-0.5,0-0.7,0c-4.3,0.2-7.7,3.7-7.7,8v7.3C4.2,19,0,26.5,0,33.7c0,0.4,0.1,0.7,0.4,1
			c0.4,0.5,4.5,4.7,17.9,4.7c13.5,0,17.5-4.2,17.9-4.7c0.2-0.3,0.3-0.6,0.3-0.9c0-7.3-4.2-14.7-10.2-18.4v-0.9l13.2-1.2
			c1.3,1.8,3.4,2.9,5.8,2.9c0.4,0,0.8,0,1.2-0.1L59,30.6c-0.4,0.9-0.6,1.9-0.6,3c0,1.3,0.4,2.6,1,3.7L43.6,61.3H33.4
			c-3.9,0-7.1,3.3-7.1,7.3v2.9c0,0.8,0.7,1.5,1.5,1.5h39.4c0.8,0,1.5-0.7,1.5-1.5v-2.9c0-4-3.2-7.3-7.1-7.3H54l13.5-20.7
			C70.6,39.9,73,37,73,33.6z M13.1,8c0-2.7,2.1-5,4.9-5.1c0.1,0,0.2,0,0.1,0c0,0,0.2,0,0.3,0C21,3,23,4.9,23.3,7.3c0,0,0,0.1,0,0.1
			c0,0.2,0,0.4,0,0.6v7.8c-3.2,0.3-7,0.3-10.2,0V8z M33.6,33.1c-1.2,0.9-5.3,3.4-15.3,3.4c-10,0-14.1-2.5-15.3-3.4
			c0.2-5.6,3.4-11.4,7.8-14.7c2.3,0.3,4.8,0.5,7.5,0.5c2.7,0,5.2-0.2,7.5-0.5C30.2,21.7,33.3,27.5,33.6,33.1z M26.3,11.4V8.5
			l11.8-1.1C38,7.8,38,8.3,38,8.7c0,0.6,0.1,1.1,0.2,1.6L26.3,11.4z M45.3,13.1c-1.6,0-3-0.9-3.8-2.2c0,0,0-0.1,0-0.1
			c-0.3-0.6-0.5-1.4-0.5-2.1c0-0.8,0.2-1.6,0.6-2.2c0,0,0,0,0-0.1c0.8-1.3,2.2-2.1,3.7-2.1c2.4,0,4.4,2,4.4,4.4c0,0.3,0,0.6-0.1,0.9
			c0,0,0,0.1,0,0.1C49.1,11.7,47.3,13.1,45.3,13.1z M49.3,14.8c0.8-0.5,1.5-1.3,2.1-2.1l12,13.9c-1,0.3-1.8,0.8-2.6,1.5L49.3,14.8z
			 M61.5,64.2c2.3,0,4.2,2,4.2,4.4v1.5H29.2v-1.5c0-2.4,1.9-4.4,4.2-4.4H61.5z M50.5,61.3h-3.5l14.3-21.8c0.8,0.6,1.6,1,2.6,1.2
			L50.5,61.3z M66.3,37.9c-0.2,0-0.4,0-0.6,0c-2.4,0-4.4-2-4.4-4.4c0-2.4,2-4.4,4.4-4.4c0.1,0,0.2,0,0.4,0c0,0,0.1,0,0.1,0
			c2.2,0.3,3.9,2.1,3.9,4.4C70.1,35.8,68.5,37.6,66.3,37.9C66.4,37.9,66.4,37.9,66.3,37.9z"/>
	</g>
</g>
</svg>
