<?xml version="1.0" encoding="utf-8"?>
<!-- Generator: Adobe Illustrator 19.0.0, SVG Export Plug-In . SVG Version: 6.00 Build 0)  -->
<svg version="1.1" id="Password2_1_" xmlns="http://www.w3.org/2000/svg" xmlns:xlink="http://www.w3.org/1999/xlink" x="0px"
	 y="0px" viewBox="0 0 73 74" style="enable-background:new 0 0 73 74;" xml:space="preserve">
<style type="text/css">
	.st0{fill-rule:evenodd;clip-rule:evenodd;}
</style>
<g id="Password2">
	<g>
		<path class="st0" d="M59.8,13.4c-3.1-3.2-6.8-4.9-10.3-4.9c-3,0-5.7,1.2-8.1,3.6c-2.6,2.7-3.8,5.9-3.5,9.4c0.3,3.2,2,6.5,4.8,9.3
			c3.1,3.2,6.8,4.9,10.3,4.9c3,0,5.7-1.2,8.1-3.6c2.6-2.7,3.8-5.9,3.5-9.4C64.3,19.5,62.6,16.2,59.8,13.4z M59,30
			c-1.8,1.8-3.8,2.7-6,2.7c-2.8,0-5.7-1.4-8.3-4c-2.3-2.3-3.7-5-3.9-7.5c-0.3-2.5,0.7-4.9,2.6-7c1.8-1.8,3.8-2.7,6-2.7
			c2.8,0,5.7,1.4,8.3,4c2.3,2.3,3.7,5,3.9,7.5C61.9,25.5,61,27.9,59,30z M72.9,22.5c-0.5-5.2-3.2-10.4-7.5-14.8
			C60.6,2.7,54.7,0,48.9,0c-5,0-9.7,2.1-13.6,6c-4.4,4.4-6.4,9.9-5.8,15.7c0.3,3.4,1.6,6.9,3.7,10.1L14,51.3l-2.5-2.5
			c-0.8-0.8-1.7-1.2-2.6-1.2c0,0,0,0,0,0c-1.7,0-2.9,1.3-4.2,2.6l-2,2C1.3,53.5,0,54.8,0,56.5c0,0.9,0.4,1.8,1.2,2.7l2.5,2.5l-1.9,2
			C0.6,64.8,0,66.3,0,67.9c0,1.6,0.6,3.1,1.8,4.3C2.9,73.4,4.5,74,6,74c1.5,0,3.1-0.6,4.2-1.8l31.5-31.9c3.7,2.5,7.8,3.8,11.8,3.8
			c5,0,9.7-2.1,13.6-6C71.5,33.7,73.5,28.3,72.9,22.5z M3.3,57.1c-0.2-0.2-0.4-0.5-0.4-0.6c0-0.5,1-1.5,1.7-2.2l2-2
			c0.7-0.7,1.7-1.7,2.2-1.7c0.1,0,0.3,0.1,0.6,0.4l2.5,2.5l-6.1,6.2L3.3,57.1z M8.2,70.1c-1.2,1.2-3.1,1.2-4.3,0
			c-0.6-0.6-0.9-1.4-0.9-2.2c0-0.8,0.3-1.6,0.9-2.2L35,34.1c0.6,0.8,1.3,1.6,2.1,2.3c0.7,0.7,1.5,1.4,2.3,2.1L8.2,70.1z M65.1,36.1
			c-3.3,3.3-7.3,5.1-11.5,5.1c-5,0-10.1-2.4-14.4-6.8c-3.8-3.9-6.2-8.5-6.6-13C32,16.4,33.7,11.8,37.4,8C40.7,4.7,44.7,3,48.9,3
			c5,0,10.1,2.4,14.4,6.8c3.8,3.9,6.2,8.5,6.6,13C70.5,27.7,68.8,32.3,65.1,36.1z"/>
	</g>
</g>
</svg>
