<?xml version="1.0" encoding="utf-8"?>
<!-- Generator: Adobe Illustrator 19.0.0, SVG Export Plug-In . SVG Version: 6.00 Build 0)  -->
<svg version="1.1" id="Sent_1_" xmlns="http://www.w3.org/2000/svg" xmlns:xlink="http://www.w3.org/1999/xlink" x="0px" y="0px"
	 viewBox="0 0 73 73" style="enable-background:new 0 0 73 73;" xml:space="preserve">
<style type="text/css">
	.st0{fill-rule:evenodd;clip-rule:evenodd;}
</style>
<g id="Sent">
	<g>
		<path class="st0" d="M72.5,0.5C72,0,71.2-0.1,70.6,0.1L1,30c-0.6,0.3-1,0.9-1.1,1.5c0,0.7,0.4,1.3,1,1.6l25.9,12.9l13,25.9
			c0.3,0.6,0.9,1,1.6,1h0.1c0.7,0,1.3-0.4,1.5-1.1L72.9,2.4C73.1,1.8,73,1,72.5,0.5z M5.9,31.8L63.6,6.9L27.8,42.7L5.9,31.8z
			 M41.3,67.1l-11-21.9L66.1,9.4L41.3,67.1z"/>
	</g>
</g>
</svg>
